<svg xmlns="http://www.w3.org/2000/svg" width="430" height="430" style="width:100%;height:100%;transform:translate3d(0,0,0);content-visibility:visible" viewBox="0 0 430 430"><defs><clipPath id="C"><path d="M0 0h430v430H0z"/></clipPath><clipPath id="M"><path d="M0 0h430v430H0z"/></clipPath><clipPath id="m"><path d="M0 0h430v430H0z"/></clipPath><clipPath id="n"><path d="M0 0h430v430H0z"/></clipPath><clipPath id="J"><path d="M0 0h430v430H0z"/></clipPath><clipPath id="p"><path d="M0 0h430v430H0z"/></clipPath><clipPath id="q"><path d="M0 0h430v430H0z"/></clipPath><clipPath id="G"><path d="M0 0h430v430H0z"/></clipPath><clipPath id="s"><path d="M0 0h430v430H0z"/></clipPath><clipPath id="u"><path d="M0 0h430v430H0z"/></clipPath><clipPath id="t"><path d="M0 0h430v430H0z"/></clipPath><clipPath id="D"><path d="M0 0h430v430H0z"/></clipPath><clipPath id="w"><path d="M0 0h430v430H0z"/></clipPath><clipPath id="A"><path d="M0 0h430v430H0z"/></clipPath><clipPath id="B"><path fill="#fff"/></clipPath><clipPath id="x"><path d="M0 0h430v430H0z"/></clipPath><mask id="o" mask-type="alpha"><use xmlns:ns1="http://www.w3.org/1999/xlink" ns1:href="#a"/></mask><mask id="O" mask-type="alpha"><use xmlns:ns2="http://www.w3.org/1999/xlink" ns2:href="#b"/></mask><mask id="r" mask-type="alpha"><use xmlns:ns3="http://www.w3.org/1999/xlink" ns3:href="#c"/></mask><mask id="L" mask-type="alpha"><use xmlns:ns4="http://www.w3.org/1999/xlink" ns4:href="#d"/></mask><mask id="v" mask-type="alpha"><g filter="url(#e)"><path fill="#fff" d="M0 0h430v430H0z" opacity="0"/><use xmlns:ns5="http://www.w3.org/1999/xlink" ns5:href="#f"/></g></mask><mask id="H" mask-type="alpha"><use xmlns:ns6="http://www.w3.org/1999/xlink" ns6:href="#g"/></mask><mask id="z" mask-type="alpha"><g filter="url(#h)"><path fill="#fff" d="M0 0h430v430H0z" opacity="0"/><use xmlns:ns7="http://www.w3.org/1999/xlink" ns7:href="#i"/></g></mask><mask id="y" mask-type="alpha"><g filter="url(#j)"><path fill="#fff" d="M0 0h430v430H0z" opacity="0"/><use xmlns:ns8="http://www.w3.org/1999/xlink" ns8:href="#k"/></g></mask><mask id="F" mask-type="alpha"><use xmlns:ns9="http://www.w3.org/1999/xlink" ns9:href="#l"/></mask><filter id="N" width="300%" height="300%" x="-100%" y="-100%"><feGaussianBlur result="filter_result_0"/></filter><filter id="K" width="300%" height="300%" x="-100%" y="-100%"><feGaussianBlur result="filter_result_0"/></filter><filter id="e" width="100%" height="100%" x="0%" y="0%" filterUnits="objectBoundingBox"><feComponentTransfer in="SourceGraphic"><feFuncA tableValues="1.0 0.0" type="table"/></feComponentTransfer></filter><filter id="I" width="300%" height="300%" x="-100%" y="-100%"><feGaussianBlur result="filter_result_0" stdDeviation="52.5 52.5"/></filter><filter id="h" width="100%" height="100%" x="0%" y="0%" filterUnits="objectBoundingBox"><feComponentTransfer in="SourceGraphic"><feFuncA tableValues="1.0 0.0" type="table"/></feComponentTransfer></filter><filter id="j" width="100%" height="100%" x="0%" y="0%" filterUnits="objectBoundingBox"><feComponentTransfer in="SourceGraphic"><feFuncA tableValues="1.0 0.0" type="table"/></feComponentTransfer></filter><filter id="E" width="300%" height="300%" x="-100%" y="-100%"><feGaussianBlur result="filter_result_0"/></filter><g id="b" clip-path="url(#m)" style="display:none"><g fill-opacity="0" stroke-linecap="round" stroke-linejoin="round" clip-path="url(#n)" mask="url(#o)" style="display:none"><g style="display:none"><path class="primary"/><path class="primary"/><path class="primary"/></g><g style="display:none"><path class="secondary"/><path class="secondary"/></g></g><path fill-opacity="0" stroke-linecap="round" stroke-linejoin="round" class="primary" style="display:none"/><path fill-opacity="0" stroke-linecap="round" stroke-linejoin="round" class="primary" style="display:none"/><g style="display:none"><path/><path fill-opacity="0" stroke-linecap="round" stroke-linejoin="round" class="primary"/><path fill-opacity="0" stroke-linecap="round" stroke-linejoin="round" class="primary"/></g></g><g id="d" clip-path="url(#p)" style="display:none"><g fill-opacity="0" stroke-linecap="round" stroke-linejoin="round" clip-path="url(#q)" mask="url(#r)" style="display:none"><g style="display:none"><path class="primary"/><path class="primary"/><path class="primary"/></g><g style="display:none"><path class="secondary"/><path class="secondary"/></g></g><path fill-opacity="0" stroke-linecap="round" stroke-linejoin="round" class="primary" style="display:none"/><g style="display:none"><path/><path fill-opacity="0" stroke-linecap="round" stroke-linejoin="round" class="primary"/><path fill-opacity="0" stroke-linecap="round" stroke-linejoin="round" class="primary"/></g><path fill-opacity="0" stroke-linecap="round" stroke-linejoin="round" class="primary" style="display:none"/></g><g id="g" clip-path="url(#s)" style="display:block"><g fill-opacity="0" stroke-linecap="round" stroke-linejoin="round" clip-path="url(#t)" style="display:none"><g style="display:none"><path class="primary"/><path class="primary"/><path class="primary"/></g><g style="display:none"><path class="secondary"/><path class="secondary"/></g></g><g fill-opacity="0" stroke-linecap="round" stroke-linejoin="round" stroke-width="12" clip-path="url(#u)" mask="url(#v)" style="display:block"><path stroke="#121331" d="M295.06 295.06h-40.03m-26.687 0h-93.402m160.119 53.373H134.94" class="primary" style="display:block"/><path stroke="#08A88A" d="M200.173 240.609s-6.094 2.793-17.215 1.589c-11.15-1.207-20.245-11.62-20.245-22.835v-8.865c0-12.951 10.6-23.264 23.548-22.997 8.367.173 12.912 1.735 12.912 1.735m68.114-.925-20.918 53.374-22.19-53.374" class="secondary" style="display:block"/></g><path fill="red" d="M26.69-186.57h.06v106.81h106.68v-.06L26.69-186.57z" style="display:block" transform="translate(214 214.76)"/><g fill-opacity="0" stroke="#121331" stroke-linecap="round" stroke-linejoin="round" stroke-width="12" style="display:block"><path d="M241.69 28.19H81.57v373.14h266.86V134.94L241.69 28.19z" class="primary"/><path d="M241.687 28.194V134.94h106.746" class="primary"/></g><g style="display:block"><path fill="red" d="M241.69 28.19s3.3 2.32 53 52.75c50.31 51.06 53.74 54 53.74 54"/><path fill-opacity="0" stroke="#121331" stroke-linecap="round" stroke-linejoin="round" stroke-width="12" d="M241.687 28.194s3.306 2.315 53 52.746c50.313 51.06 53.746 54 53.746 54" class="primary"/></g></g><g id="l" clip-path="url(#w)" style="display:none"><g fill-opacity="0" stroke-linecap="round" stroke-linejoin="round" clip-path="url(#x)" mask="url(#y)" style="display:none"><g style="display:none"><path class="primary"/><path class="primary"/><path class="primary"/></g><g style="display:none"><path class="secondary"/><path class="secondary"/></g></g><g mask="url(#z)" style="display:none"><path fill-opacity="0" stroke-linecap="round" stroke-linejoin="round" class="primary"/><path/><path fill-opacity="0" stroke-linecap="round" stroke-linejoin="round" class="primary"/><path fill-opacity="0" stroke-linecap="round" stroke-linejoin="round" class="primary"/></g><g clip-path="url(#A)" style="display:none"><g fill-opacity="0" stroke-linecap="round" stroke-linejoin="round" clip-path="url(#B)"><g style="display:none"><path class="primary"/><path class="primary"/><path class="primary"/></g><g style="display:none"><path class="secondary"/><path class="secondary"/></g></g></g><path fill-opacity="0" stroke-linecap="round" stroke-linejoin="round" class="primary" style="display:none"/><g style="display:none"><path/><path fill-opacity="0" stroke-linecap="round" stroke-linejoin="round" class="primary"/><path fill-opacity="0" stroke-linecap="round" stroke-linejoin="round" class="primary"/></g><path fill-opacity="0" stroke-linecap="round" stroke-linejoin="round" class="primary" style="display:none"/></g><g id="i" style="display:none"><path fill-opacity="0"/><path/></g><g id="k" style="display:none"><path fill-opacity="0"/><path/></g><path id="a" style="display:none"/><path id="c" style="display:none"/><path id="f" fill="red" d="M26.69-186.57h.06v106.81h106.68v-.06L26.69-186.57z" style="display:block" transform="translate(214 214.76)"/></defs><g clip-path="url(#C)"><g clip-path="url(#D)" filter="url(#E)" mask="url(#F)" style="display:none"><g class="design"><path class="primary"/></g><g class="design"><path class="secondary"/></g></g><g clip-path="url(#G)" mask="url(#H)" style="display:block"><g filter="url(#I)" transform="rotate(-94 243.424 -11.565) scale(2.4)"><g class="design"><path fill="#4BE1EC" d="M0-250c137.975 0 250 112.025 250 250S137.975 250 0 250-250 137.975-250 0-137.975-250 0-250z" class="primary"/></g><g class="design"><path fill="#CB5EEE" d="M113.242-295.384c97.478 0 176.5 79.022 176.5 176.5s-79.022 176.5-176.5 176.5c-43.948 0-74.396-34.057-105.29-60.631-37.631-32.369-71.21-62.338-71.21-115.869 0-97.478 79.022-176.5 176.5-176.5z" class="secondary"/></g></g></g><g clip-path="url(#J)" filter="url(#K)" mask="url(#L)" style="display:none"><g class="design"><path class="primary"/></g><g class="design"><path class="secondary"/></g></g><g clip-path="url(#M)" filter="url(#N)" mask="url(#O)" style="display:none"><g class="design"><path class="primary"/></g><g class="design"><path class="secondary"/></g></g></g></svg>